<svg width="401" height="200" viewBox="0 0 401 200" fill="none" xmlns="http://www.w3.org/2000/svg">
<path d="M27.875 75H4.98296V0.81818H28.8892C36.0852 0.81818 42.2429 2.30327 47.3622 5.27344C52.4815 8.21946 56.4055 12.4574 59.1342 17.9872C61.8629 23.4929 63.2273 30.0852 63.2273 37.7642C63.2273 45.4915 61.8509 52.1442 59.098 57.7223C56.3452 63.2763 52.3366 67.5504 47.0724 70.5447C41.8082 73.5149 35.4091 75 27.875 75ZM13.9659 67.0312H27.2955C33.429 67.0312 38.5121 65.848 42.5447 63.4815C46.5774 61.1151 49.5838 57.7464 51.5639 53.3757C53.544 49.005 54.5341 43.8011 54.5341 37.7642C54.5341 31.7756 53.5561 26.62 51.6001 22.2976C49.6442 17.951 46.7223 14.6186 42.8345 12.3004C38.9467 9.95809 34.1051 8.78693 28.3097 8.78693H13.9659V67.0312ZM87.2784 0.81818V75H78.2955V0.81818H87.2784ZM108.332 75H98.9146L126.153 0.81818H135.426L162.665 75H153.247L131.079 12.554H130.5L108.332 75ZM111.809 46.0227H149.77V53.9915H111.809V46.0227ZM233.043 0.81818V75H224.35L183.927 16.7557H183.202V75H174.219V0.81818H182.912L223.481 59.2074H224.205V0.81818H233.043ZM254.061 75H244.643L271.882 0.81818H281.154L308.393 75H298.975L276.808 12.554H276.228L254.061 75ZM257.538 46.0227H295.498V53.9915H257.538V46.0227ZM33.3807 123.818H42.3636V176.847C42.3636 181.58 41.4943 185.6 39.7557 188.908C38.017 192.217 35.5661 194.728 32.4027 196.442C29.2393 198.157 25.5085 199.014 21.2102 199.014C17.1534 199.014 13.5433 198.278 10.38 196.805C7.21662 195.308 4.7294 193.183 2.91832 190.43C1.10724 187.677 0.201705 184.405 0.201705 180.614H9.03977C9.03977 182.714 9.55895 184.55 10.5973 186.119C11.6598 187.665 13.1087 188.872 14.9439 189.741C16.7791 190.611 18.8679 191.045 21.2102 191.045C23.794 191.045 25.9915 190.502 27.8026 189.415C29.6136 188.329 30.9901 186.735 31.9318 184.634C32.8977 182.509 33.3807 179.913 33.3807 176.847V123.818ZM122.957 160.909C122.957 168.733 121.544 175.494 118.719 181.193C115.893 186.892 112.018 191.287 107.092 194.378C102.165 197.469 96.5391 199.014 90.2124 199.014C83.8857 199.014 78.2592 197.469 73.3331 194.378C68.407 191.287 64.5313 186.892 61.706 181.193C58.8807 175.494 57.468 168.733 57.468 160.909C57.468 153.085 58.8807 146.324 61.706 140.625C64.5313 134.926 68.407 130.531 73.3331 127.44C78.2592 124.349 83.8857 122.804 90.2124 122.804C96.5391 122.804 102.165 124.349 107.092 127.44C112.018 130.531 115.893 134.926 118.719 140.625C121.544 146.324 122.957 153.085 122.957 160.909ZM114.263 160.909C114.263 154.486 113.189 149.065 111.04 144.646C108.915 140.227 106.029 136.882 102.383 134.612C98.7607 132.342 94.7038 131.207 90.2124 131.207C85.7209 131.207 81.652 132.342 78.0057 134.612C74.3835 136.882 71.4979 140.227 69.3487 144.646C67.2237 149.065 66.1612 154.486 66.1612 160.909C66.1612 167.332 67.2237 172.754 69.3487 177.173C71.4979 181.592 74.3835 184.936 78.0057 187.206C81.652 189.476 85.7209 190.611 90.2124 190.611C94.7038 190.611 98.7607 189.476 102.383 187.206C106.029 184.936 108.915 181.592 111.04 177.173C113.189 172.754 114.263 167.332 114.263 160.909ZM138.061 198V123.818H163.126C168.922 123.818 173.679 124.808 177.398 126.788C181.116 128.744 183.869 131.437 185.656 134.866C187.443 138.295 188.337 142.195 188.337 146.565C188.337 150.936 187.443 154.812 185.656 158.192C183.869 161.573 181.129 164.229 177.434 166.161C173.739 168.069 169.018 169.023 163.271 169.023H142.987V160.909H162.982C166.942 160.909 170.129 160.33 172.544 159.17C174.983 158.011 176.746 156.369 177.832 154.244C178.943 152.095 179.499 149.536 179.499 146.565C179.499 143.595 178.943 140.999 177.832 138.778C176.722 136.556 174.947 134.842 172.508 133.634C170.069 132.403 166.845 131.787 162.837 131.787H147.044V198H138.061ZM172.979 164.676L191.234 198H180.803L162.837 164.676H172.979ZM226.197 198H203.305V123.818H227.211C234.407 123.818 240.565 125.303 245.684 128.273C250.804 131.219 254.728 135.457 257.456 140.987C260.185 146.493 261.55 153.085 261.55 160.764C261.55 168.491 260.173 175.144 257.42 180.722C254.667 186.276 250.659 190.55 245.395 193.545C240.131 196.515 233.731 198 226.197 198ZM212.288 190.031H225.618C231.751 190.031 236.834 188.848 240.867 186.482C244.9 184.115 247.906 180.746 249.886 176.376C251.866 172.005 252.856 166.801 252.856 160.764C252.856 154.776 251.878 149.62 249.922 145.298C247.966 140.951 245.045 137.619 241.157 135.3C237.269 132.958 232.427 131.787 226.632 131.787H212.288V190.031ZM276.174 198H266.756L293.995 123.818H303.268L330.506 198H321.089L298.921 135.554H298.342L276.174 198ZM279.651 169.023H317.612V176.991H279.651V169.023ZM400.885 123.818V198H392.192L351.768 139.756H351.044V198H342.061V123.818H350.754L391.322 182.207H392.047V123.818H400.885Z" fill="white"/>
</svg>
