<svg width="360" height="48" viewBox="0 0 360 48" fill="none" xmlns="http://www.w3.org/2000/svg">
<g filter="url(#filter0_d_3_6)">
<path d="M0.840909 18V4.90909H2.78409V6.95455H2.95455C3.22727 6.25568 3.66761 5.71307 4.27557 5.3267C4.88352 4.93466 5.61364 4.73864 6.46591 4.73864C7.32955 4.73864 8.0483 4.93466 8.62216 5.3267C9.2017 5.71307 9.65341 6.25568 9.97727 6.95455H10.1136C10.4489 6.27841 10.9517 5.74148 11.6222 5.34375C12.2926 4.94034 13.0966 4.73864 14.0341 4.73864C15.2045 4.73864 16.1619 5.10511 16.9062 5.83807C17.6506 6.56534 18.0227 7.69886 18.0227 9.23864V18H16.0114V9.23864C16.0114 8.27273 15.7472 7.58239 15.2188 7.16761C14.6903 6.75284 14.0682 6.54545 13.3523 6.54545C12.4318 6.54545 11.7188 6.82386 11.2131 7.38068C10.7074 7.93182 10.4545 8.63068 10.4545 9.47727V18H8.40909V9.03409C8.40909 8.28977 8.16761 7.69034 7.68466 7.2358C7.2017 6.77557 6.57955 6.54545 5.81818 6.54545C5.29545 6.54545 4.80682 6.68466 4.35227 6.96307C3.90341 7.24148 3.53977 7.62784 3.26136 8.12216C2.98864 8.6108 2.85227 9.17614 2.85227 9.81818V18H0.840909ZM27.2326 18.3068C26.403 18.3068 25.6502 18.1506 24.974 17.8381C24.2979 17.5199 23.761 17.0625 23.3632 16.4659C22.9655 15.8636 22.7666 15.1364 22.7666 14.2841C22.7666 13.5341 22.9144 12.9261 23.2098 12.4602C23.5053 11.9886 23.9002 11.6193 24.3945 11.3523C24.8888 11.0852 25.4343 10.8864 26.0309 10.7557C26.6331 10.6193 27.2382 10.5114 27.8462 10.4318C28.6416 10.3295 29.2865 10.2528 29.7809 10.2017C30.2809 10.1449 30.6445 10.0511 30.8718 9.92045C31.1047 9.78977 31.2212 9.5625 31.2212 9.23864V9.17045C31.2212 8.32955 30.9911 7.67614 30.5309 7.21023C30.0763 6.74432 29.386 6.51136 28.4598 6.51136C27.4996 6.51136 26.7468 6.72159 26.2013 7.14205C25.6559 7.5625 25.2723 8.01136 25.0507 8.48864L23.1416 7.80682C23.4826 7.01136 23.9371 6.39205 24.5053 5.94886C25.0791 5.5 25.7041 5.1875 26.3803 5.01136C27.0621 4.82955 27.7326 4.73864 28.3916 4.73864C28.8121 4.73864 29.2951 4.78977 29.8405 4.89204C30.3916 4.98864 30.9229 5.19034 31.4343 5.49716C31.9513 5.80398 32.3803 6.26705 32.7212 6.88636C33.0621 7.50568 33.2326 8.33523 33.2326 9.375V18H31.2212V16.2273H31.1189C30.9826 16.5114 30.7553 16.8153 30.4371 17.1392C30.1189 17.4631 29.6956 17.7386 29.1672 17.9659C28.6388 18.1932 27.9939 18.3068 27.2326 18.3068ZM27.5394 16.5C28.3348 16.5 29.0053 16.3438 29.5507 16.0312C30.1019 15.7188 30.5166 15.3153 30.7951 14.821C31.0791 14.3267 31.2212 13.8068 31.2212 13.2614V11.4205C31.136 11.5227 30.9485 11.6165 30.6587 11.7017C30.3746 11.7812 30.0451 11.8523 29.6701 11.9148C29.3007 11.9716 28.9399 12.0227 28.5877 12.0682C28.2411 12.108 27.9598 12.142 27.7439 12.1705C27.2212 12.2386 26.7326 12.3494 26.278 12.5028C25.8291 12.6506 25.4655 12.875 25.1871 13.1761C24.9144 13.4716 24.778 13.875 24.778 14.3864C24.778 15.0852 25.0365 15.6136 25.5536 15.9716C26.0763 16.3239 26.7382 16.5 27.5394 16.5ZM40.4587 13.2273L40.4246 10.7386H40.8337L46.561 4.90909H49.0496L42.9474 11.0795H42.7769L40.4587 13.2273ZM38.5837 18V0.545454H40.5951V18H38.5837ZM46.9019 18L41.7883 11.5227L43.2201 10.125L49.4587 18H46.9019ZM58.268 18.2727C57.0066 18.2727 55.9186 17.9943 55.0038 17.4375C54.0947 16.875 53.393 16.0909 52.8987 15.0852C52.41 14.0739 52.1657 12.8977 52.1657 11.5568C52.1657 10.2159 52.41 9.03409 52.8987 8.01136C53.393 6.98295 54.0805 6.18182 54.9612 5.60795C55.8475 5.02841 56.8816 4.73864 58.0634 4.73864C58.7453 4.73864 59.4186 4.85227 60.0833 5.07954C60.7481 5.30682 61.3532 5.67614 61.8987 6.1875C62.4441 6.69318 62.8788 7.36364 63.2026 8.19886C63.5265 9.03409 63.6884 10.0625 63.6884 11.2841V12.1364H53.5975V10.3977H61.643C61.643 9.65909 61.4953 9 61.1998 8.42045C60.91 7.84091 60.4953 7.38352 59.9555 7.0483C59.4214 6.71307 58.7907 6.54545 58.0634 6.54545C57.2623 6.54545 56.5691 6.74432 55.9839 7.14205C55.4043 7.53409 54.9583 8.04545 54.6458 8.67614C54.3333 9.30682 54.1771 9.98295 54.1771 10.7045V11.8636C54.1771 12.8523 54.3475 13.6903 54.6884 14.3778C55.035 15.0597 55.5151 15.5795 56.1288 15.9375C56.7424 16.2898 57.4555 16.4659 58.268 16.4659C58.7964 16.4659 59.2737 16.392 59.6998 16.2443C60.1316 16.0909 60.5038 15.8636 60.8163 15.5625C61.1288 15.2557 61.3703 14.875 61.5407 14.4205L63.4839 14.9659C63.2793 15.625 62.9356 16.2045 62.4526 16.7045C61.9697 17.1989 61.3731 17.5852 60.6629 17.8636C59.9526 18.1364 59.1543 18.2727 58.268 18.2727ZM82.3467 18.2727C81.0854 18.2727 79.9973 17.9943 79.0825 17.4375C78.1734 16.875 77.4717 16.0909 76.9774 15.0852C76.4888 14.0739 76.2445 12.8977 76.2445 11.5568C76.2445 10.2159 76.4888 9.03409 76.9774 8.01136C77.4717 6.98295 78.1592 6.18182 79.0399 5.60795C79.9263 5.02841 80.9604 4.73864 82.1422 4.73864C82.824 4.73864 83.4973 4.85227 84.1621 5.07954C84.8268 5.30682 85.432 5.67614 85.9774 6.1875C86.5229 6.69318 86.9575 7.36364 87.2814 8.19886C87.6053 9.03409 87.7672 10.0625 87.7672 11.2841V12.1364H77.6763V10.3977H85.7217C85.7217 9.65909 85.574 9 85.2786 8.42045C84.9888 7.84091 84.574 7.38352 84.0342 7.0483C83.5001 6.71307 82.8695 6.54545 82.1422 6.54545C81.3411 6.54545 80.6479 6.74432 80.0626 7.14205C79.4831 7.53409 79.0371 8.04545 78.7246 8.67614C78.4121 9.30682 78.2558 9.98295 78.2558 10.7045V11.8636C78.2558 12.8523 78.4263 13.6903 78.7672 14.3778C79.1138 15.0597 79.5939 15.5795 80.2075 15.9375C80.8212 16.2898 81.5342 16.4659 82.3467 16.4659C82.8751 16.4659 83.3524 16.392 83.7786 16.2443C84.2104 16.0909 84.5825 15.8636 84.895 15.5625C85.2075 15.2557 85.449 14.875 85.6195 14.4205L87.5626 14.9659C87.3581 15.625 87.0143 16.2045 86.5314 16.7045C86.0484 17.1989 85.4518 17.5852 84.7416 17.8636C84.0314 18.1364 83.2331 18.2727 82.3467 18.2727ZM92.5068 18V4.90909H94.45V6.95455H94.6205C94.8932 6.25568 95.3336 5.71307 95.9415 5.3267C96.5495 4.93466 97.2796 4.73864 98.1318 4.73864C98.9955 4.73864 99.7142 4.93466 100.288 5.3267C100.868 5.71307 101.319 6.25568 101.643 6.95455H101.78C102.115 6.27841 102.618 5.74148 103.288 5.34375C103.959 4.94034 104.763 4.73864 105.7 4.73864C106.87 4.73864 107.828 5.10511 108.572 5.83807C109.317 6.56534 109.689 7.69886 109.689 9.23864V18H107.677V9.23864C107.677 8.27273 107.413 7.58239 106.885 7.16761C106.356 6.75284 105.734 6.54545 105.018 6.54545C104.098 6.54545 103.385 6.82386 102.879 7.38068C102.373 7.93182 102.12 8.63068 102.12 9.47727V18H100.075V9.03409C100.075 8.28977 99.8336 7.69034 99.3506 7.2358C98.8676 6.77557 98.2455 6.54545 97.4841 6.54545C96.9614 6.54545 96.4728 6.68466 96.0182 6.96307C95.5693 7.24148 95.2057 7.62784 94.9273 8.12216C94.6546 8.6108 94.5182 9.17614 94.5182 9.81818V18H92.5068ZM115.046 22.9091V4.90909H116.989V6.98864H117.228C117.376 6.76136 117.58 6.47159 117.842 6.11932C118.109 5.76136 118.489 5.44318 118.984 5.16477C119.484 4.88068 120.16 4.73864 121.012 4.73864C122.114 4.73864 123.086 5.0142 123.927 5.56534C124.768 6.11648 125.424 6.89773 125.896 7.90909C126.367 8.92045 126.603 10.1136 126.603 11.4886C126.603 12.875 126.367 14.0767 125.896 15.0938C125.424 16.1051 124.771 16.8892 123.935 17.446C123.1 17.9972 122.137 18.2727 121.046 18.2727C120.205 18.2727 119.532 18.1335 119.026 17.8551C118.521 17.571 118.131 17.25 117.859 16.892C117.586 16.5284 117.376 16.2273 117.228 15.9886H117.058V22.9091H115.046ZM117.023 11.4545C117.023 12.4432 117.168 13.3153 117.458 14.071C117.748 14.821 118.171 15.4091 118.728 15.8352C119.285 16.2557 119.967 16.4659 120.773 16.4659C121.614 16.4659 122.316 16.2443 122.879 15.8011C123.447 15.3523 123.873 14.75 124.157 13.9943C124.447 13.233 124.592 12.3864 124.592 11.4545C124.592 10.5341 124.45 9.70455 124.166 8.96591C123.887 8.22159 123.464 7.63352 122.896 7.2017C122.333 6.7642 121.626 6.54545 120.773 6.54545C119.955 6.54545 119.268 6.75284 118.711 7.16761C118.154 7.5767 117.734 8.15057 117.45 8.8892C117.166 9.62216 117.023 10.4773 117.023 11.4545ZM135.203 18.3068C134.374 18.3068 133.621 18.1506 132.945 17.8381C132.269 17.5199 131.732 17.0625 131.334 16.4659C130.936 15.8636 130.738 15.1364 130.738 14.2841C130.738 13.5341 130.885 12.9261 131.181 12.4602C131.476 11.9886 131.871 11.6193 132.365 11.3523C132.86 11.0852 133.405 10.8864 134.002 10.7557C134.604 10.6193 135.209 10.5114 135.817 10.4318C136.613 10.3295 137.257 10.2528 137.752 10.2017C138.252 10.1449 138.615 10.0511 138.843 9.92045C139.076 9.78977 139.192 9.5625 139.192 9.23864V9.17045C139.192 8.32955 138.962 7.67614 138.502 7.21023C138.047 6.74432 137.357 6.51136 136.431 6.51136C135.471 6.51136 134.718 6.72159 134.172 7.14205C133.627 7.5625 133.243 8.01136 133.022 8.48864L131.113 7.80682C131.453 7.01136 131.908 6.39205 132.476 5.94886C133.05 5.5 133.675 5.1875 134.351 5.01136C135.033 4.82955 135.703 4.73864 136.363 4.73864C136.783 4.73864 137.266 4.78977 137.811 4.89204C138.363 4.98864 138.894 5.19034 139.405 5.49716C139.922 5.80398 140.351 6.26705 140.692 6.88636C141.033 7.50568 141.203 8.33523 141.203 9.375V18H139.192V16.2273H139.09C138.953 16.5114 138.726 16.8153 138.408 17.1392C138.09 17.4631 137.667 17.7386 137.138 17.9659C136.61 18.1932 135.965 18.3068 135.203 18.3068ZM135.51 16.5C136.306 16.5 136.976 16.3438 137.522 16.0312C138.073 15.7188 138.488 15.3153 138.766 14.821C139.05 14.3267 139.192 13.8068 139.192 13.2614V11.4205C139.107 11.5227 138.919 11.6165 138.63 11.7017C138.346 11.7812 138.016 11.8523 137.641 11.9148C137.272 11.9716 136.911 12.0227 136.559 12.0682C136.212 12.108 135.931 12.142 135.715 12.1705C135.192 12.2386 134.703 12.3494 134.249 12.5028C133.8 12.6506 133.436 12.875 133.158 13.1761C132.885 13.4716 132.749 13.875 132.749 14.3864C132.749 15.0852 133.007 15.6136 133.525 15.9716C134.047 16.3239 134.709 16.5 135.51 16.5ZM152.248 4.90909V6.61364H145.464V4.90909H152.248ZM147.441 1.77273H149.452V14.25C149.452 14.8182 149.535 15.2443 149.7 15.5284C149.87 15.8068 150.086 15.9943 150.347 16.0909C150.614 16.1818 150.896 16.2273 151.191 16.2273C151.413 16.2273 151.594 16.2159 151.736 16.1932C151.879 16.1648 151.992 16.142 152.077 16.125L152.486 17.9318C152.35 17.983 152.16 18.0341 151.915 18.0852C151.671 18.142 151.361 18.1705 150.986 18.1705C150.418 18.1705 149.861 18.0483 149.316 17.804C148.776 17.5597 148.327 17.1875 147.969 16.6875C147.617 16.1875 147.441 15.5568 147.441 14.7955V1.77273ZM159.246 10.125V18H157.235V0.545454H159.246V6.95455H159.416C159.723 6.27841 160.184 5.74148 160.797 5.34375C161.416 4.94034 162.24 4.73864 163.269 4.73864C164.161 4.73864 164.942 4.91761 165.613 5.27557C166.283 5.62784 166.803 6.17045 167.172 6.90341C167.547 7.63068 167.735 8.55682 167.735 9.68182V18H165.723V9.81818C165.723 8.77841 165.453 7.97443 164.914 7.40625C164.38 6.83239 163.638 6.54545 162.689 6.54545C162.03 6.54545 161.439 6.68466 160.916 6.96307C160.399 7.24148 159.99 7.64773 159.689 8.18182C159.394 8.71591 159.246 9.36364 159.246 10.125ZM173.921 22.9091C173.58 22.9091 173.276 22.8807 173.009 22.8239C172.742 22.7727 172.557 22.7216 172.455 22.6705L172.967 20.8977C173.455 21.0227 173.887 21.0682 174.262 21.0341C174.637 21 174.969 20.8324 175.259 20.5312C175.555 20.2358 175.824 19.7557 176.069 19.0909L176.444 18.0682L171.603 4.90909H173.785L177.398 15.3409H177.535L181.148 4.90909H183.33L177.773 19.9091C177.523 20.5852 177.214 21.1449 176.844 21.5881C176.475 22.0369 176.046 22.3693 175.557 22.5852C175.074 22.8011 174.529 22.9091 173.921 22.9091ZM201.379 23.1818C200.407 23.1818 199.572 23.0568 198.873 22.8068C198.175 22.5625 197.592 22.2386 197.126 21.8352C196.666 21.4375 196.3 21.0114 196.027 20.5568L197.629 19.4318C197.811 19.6705 198.041 19.9432 198.319 20.25C198.598 20.5625 198.978 20.8324 199.461 21.0597C199.95 21.2926 200.589 21.4091 201.379 21.4091C202.436 21.4091 203.308 21.1534 203.996 20.642C204.683 20.1307 205.027 19.3295 205.027 18.2386V15.5795H204.856C204.709 15.8182 204.498 16.1136 204.226 16.4659C203.959 16.8125 203.572 17.1222 203.067 17.3949C202.567 17.6619 201.89 17.7955 201.038 17.7955C199.981 17.7955 199.032 17.5455 198.192 17.0455C197.356 16.5455 196.694 15.8182 196.206 14.8636C195.723 13.9091 195.481 12.75 195.481 11.3864C195.481 10.0455 195.717 8.87784 196.189 7.88352C196.66 6.88352 197.317 6.1108 198.157 5.56534C198.998 5.0142 199.97 4.73864 201.072 4.73864C201.925 4.73864 202.601 4.88068 203.101 5.16477C203.606 5.44318 203.993 5.76136 204.26 6.11932C204.532 6.47159 204.743 6.76136 204.89 6.98864H205.095V4.90909H207.038V18.375C207.038 19.5 206.782 20.4148 206.271 21.1193C205.765 21.8295 205.084 22.3494 204.226 22.679C203.373 23.0142 202.425 23.1818 201.379 23.1818ZM201.311 15.9886C202.118 15.9886 202.8 15.804 203.356 15.4347C203.913 15.0653 204.336 14.5341 204.626 13.8409C204.916 13.1477 205.061 12.3182 205.061 11.3523C205.061 10.4091 204.919 9.5767 204.635 8.85511C204.351 8.13352 203.93 7.56818 203.373 7.15909C202.817 6.75 202.129 6.54545 201.311 6.54545C200.459 6.54545 199.748 6.76136 199.18 7.19318C198.618 7.625 198.194 8.20455 197.91 8.93182C197.632 9.65909 197.493 10.4659 197.493 11.3523C197.493 12.2614 197.635 13.0653 197.919 13.7642C198.209 14.4574 198.635 15.0028 199.197 15.4006C199.765 15.7926 200.47 15.9886 201.311 15.9886ZM212.4 18V4.90909H214.343V6.88636H214.48C214.718 6.23864 215.15 5.71307 215.775 5.30966C216.4 4.90625 217.105 4.70454 217.889 4.70454C218.036 4.70454 218.221 4.70739 218.443 4.71307C218.664 4.71875 218.832 4.72727 218.945 4.73864V6.78409C218.877 6.76705 218.721 6.74148 218.477 6.70739C218.238 6.66761 217.985 6.64773 217.718 6.64773C217.082 6.64773 216.514 6.78125 216.014 7.0483C215.519 7.30966 215.127 7.6733 214.837 8.1392C214.553 8.59943 214.411 9.125 214.411 9.71591V18H212.4ZM228.1 18.2727C226.838 18.2727 225.75 17.9943 224.836 17.4375C223.927 16.875 223.225 16.0909 222.731 15.0852C222.242 14.0739 221.998 12.8977 221.998 11.5568C221.998 10.2159 222.242 9.03409 222.731 8.01136C223.225 6.98295 223.912 6.18182 224.793 5.60795C225.679 5.02841 226.713 4.73864 227.895 4.73864C228.577 4.73864 229.25 4.85227 229.915 5.07954C230.58 5.30682 231.185 5.67614 231.731 6.1875C232.276 6.69318 232.711 7.36364 233.035 8.19886C233.358 9.03409 233.52 10.0625 233.52 11.2841V12.1364H223.429V10.3977H231.475C231.475 9.65909 231.327 9 231.032 8.42045C230.742 7.84091 230.327 7.38352 229.787 7.0483C229.253 6.71307 228.623 6.54545 227.895 6.54545C227.094 6.54545 226.401 6.74432 225.816 7.14205C225.236 7.53409 224.79 8.04545 224.478 8.67614C224.165 9.30682 224.009 9.98295 224.009 10.7045V11.8636C224.009 12.8523 224.179 13.6903 224.52 14.3778C224.867 15.0597 225.347 15.5795 225.961 15.9375C226.574 16.2898 227.287 16.4659 228.1 16.4659C228.628 16.4659 229.106 16.392 229.532 16.2443C229.963 16.0909 230.336 15.8636 230.648 15.5625C230.961 15.2557 231.202 14.875 231.373 14.4205L233.316 14.9659C233.111 15.625 232.767 16.2045 232.285 16.7045C231.802 17.1989 231.205 17.5852 230.495 17.8636C229.785 18.1364 228.986 18.2727 228.1 18.2727ZM242.112 18.3068C241.283 18.3068 240.53 18.1506 239.854 17.8381C239.178 17.5199 238.641 17.0625 238.243 16.4659C237.845 15.8636 237.646 15.1364 237.646 14.2841C237.646 13.5341 237.794 12.9261 238.09 12.4602C238.385 11.9886 238.78 11.6193 239.274 11.3523C239.768 11.0852 240.314 10.8864 240.911 10.7557C241.513 10.6193 242.118 10.5114 242.726 10.4318C243.521 10.3295 244.166 10.2528 244.661 10.2017C245.161 10.1449 245.524 10.0511 245.751 9.92045C245.984 9.78977 246.101 9.5625 246.101 9.23864V9.17045C246.101 8.32955 245.871 7.67614 245.411 7.21023C244.956 6.74432 244.266 6.51136 243.34 6.51136C242.379 6.51136 241.626 6.72159 241.081 7.14205C240.536 7.5625 240.152 8.01136 239.93 8.48864L238.021 7.80682C238.362 7.01136 238.817 6.39205 239.385 5.94886C239.959 5.5 240.584 5.1875 241.26 5.01136C241.942 4.82955 242.612 4.73864 243.271 4.73864C243.692 4.73864 244.175 4.78977 244.72 4.89204C245.271 4.98864 245.803 5.19034 246.314 5.49716C246.831 5.80398 247.26 6.26705 247.601 6.88636C247.942 7.50568 248.112 8.33523 248.112 9.375V18H246.101V16.2273H245.999C245.862 16.5114 245.635 16.8153 245.317 17.1392C244.999 17.4631 244.575 17.7386 244.047 17.9659C243.518 18.1932 242.874 18.3068 242.112 18.3068ZM242.419 16.5C243.215 16.5 243.885 16.3438 244.43 16.0312C244.982 15.7188 245.396 15.3153 245.675 14.821C245.959 14.3267 246.101 13.8068 246.101 13.2614V11.4205C246.016 11.5227 245.828 11.6165 245.538 11.7017C245.254 11.7812 244.925 11.8523 244.55 11.9148C244.18 11.9716 243.82 12.0227 243.467 12.0682C243.121 12.108 242.84 12.142 242.624 12.1705C242.101 12.2386 241.612 12.3494 241.158 12.5028C240.709 12.6506 240.345 12.875 240.067 13.1761C239.794 13.4716 239.658 13.875 239.658 14.3864C239.658 15.0852 239.916 15.6136 240.433 15.9716C240.956 16.3239 241.618 16.5 242.419 16.5ZM259.157 4.90909V6.61364H252.372V4.90909H259.157ZM254.35 1.77273H256.361V14.25C256.361 14.8182 256.444 15.2443 256.608 15.5284C256.779 15.8068 256.995 15.9943 257.256 16.0909C257.523 16.1818 257.804 16.2273 258.1 16.2273C258.321 16.2273 258.503 16.2159 258.645 16.1932C258.787 16.1648 258.901 16.142 258.986 16.125L259.395 17.9318C259.259 17.983 259.069 18.0341 258.824 18.0852C258.58 18.142 258.27 18.1705 257.895 18.1705C257.327 18.1705 256.77 18.0483 256.225 17.804C255.685 17.5597 255.236 17.1875 254.878 16.6875C254.526 16.1875 254.35 15.5568 254.35 14.7955V1.77273ZM276.144 18.3068C275.315 18.3068 274.562 18.1506 273.886 17.8381C273.21 17.5199 272.673 17.0625 272.275 16.4659C271.877 15.8636 271.679 15.1364 271.679 14.2841C271.679 13.5341 271.826 12.9261 272.122 12.4602C272.417 11.9886 272.812 11.6193 273.306 11.3523C273.801 11.0852 274.346 10.8864 274.943 10.7557C275.545 10.6193 276.15 10.5114 276.758 10.4318C277.554 10.3295 278.198 10.2528 278.693 10.2017C279.193 10.1449 279.556 10.0511 279.784 9.92045C280.017 9.78977 280.133 9.5625 280.133 9.23864V9.17045C280.133 8.32955 279.903 7.67614 279.443 7.21023C278.988 6.74432 278.298 6.51136 277.372 6.51136C276.411 6.51136 275.659 6.72159 275.113 7.14205C274.568 7.5625 274.184 8.01136 273.963 8.48864L272.054 7.80682C272.394 7.01136 272.849 6.39205 273.417 5.94886C273.991 5.5 274.616 5.1875 275.292 5.01136C275.974 4.82955 276.644 4.73864 277.304 4.73864C277.724 4.73864 278.207 4.78977 278.752 4.89204C279.304 4.98864 279.835 5.19034 280.346 5.49716C280.863 5.80398 281.292 6.26705 281.633 6.88636C281.974 7.50568 282.144 8.33523 282.144 9.375V18H280.133V16.2273H280.031C279.894 16.5114 279.667 16.8153 279.349 17.1392C279.031 17.4631 278.608 17.7386 278.079 17.9659C277.551 18.1932 276.906 18.3068 276.144 18.3068ZM276.451 16.5C277.247 16.5 277.917 16.3438 278.463 16.0312C279.014 15.7188 279.429 15.3153 279.707 14.821C279.991 14.3267 280.133 13.8068 280.133 13.2614V11.4205C280.048 11.5227 279.86 11.6165 279.571 11.7017C279.286 11.7812 278.957 11.8523 278.582 11.9148C278.213 11.9716 277.852 12.0227 277.5 12.0682C277.153 12.108 276.872 12.142 276.656 12.1705C276.133 12.2386 275.644 12.3494 275.19 12.5028C274.741 12.6506 274.377 12.875 274.099 13.1761C273.826 13.4716 273.69 13.875 273.69 14.3864C273.69 15.0852 273.948 15.6136 274.465 15.9716C274.988 16.3239 275.65 16.5 276.451 16.5ZM292.78 23.1818C291.808 23.1818 290.973 23.0568 290.274 22.8068C289.575 22.5625 288.993 22.2386 288.527 21.8352C288.067 21.4375 287.7 21.0114 287.427 20.5568L289.03 19.4318C289.212 19.6705 289.442 19.9432 289.72 20.25C289.998 20.5625 290.379 20.8324 290.862 21.0597C291.351 21.2926 291.99 21.4091 292.78 21.4091C293.837 21.4091 294.709 21.1534 295.396 20.642C296.084 20.1307 296.427 19.3295 296.427 18.2386V15.5795H296.257C296.109 15.8182 295.899 16.1136 295.626 16.4659C295.359 16.8125 294.973 17.1222 294.467 17.3949C293.967 17.6619 293.291 17.7955 292.439 17.7955C291.382 17.7955 290.433 17.5455 289.592 17.0455C288.757 16.5455 288.095 15.8182 287.606 14.8636C287.123 13.9091 286.882 12.75 286.882 11.3864C286.882 10.0455 287.118 8.87784 287.589 7.88352C288.061 6.88352 288.717 6.1108 289.558 5.56534C290.399 5.0142 291.371 4.73864 292.473 4.73864C293.325 4.73864 294.001 4.88068 294.501 5.16477C295.007 5.44318 295.393 5.76136 295.66 6.11932C295.933 6.47159 296.143 6.76136 296.291 6.98864H296.496V4.90909H298.439V18.375C298.439 19.5 298.183 20.4148 297.672 21.1193C297.166 21.8295 296.484 22.3494 295.626 22.679C294.774 23.0142 293.825 23.1818 292.78 23.1818ZM292.712 15.9886C293.518 15.9886 294.2 15.804 294.757 15.4347C295.314 15.0653 295.737 14.5341 296.027 13.8409C296.317 13.1477 296.462 12.3182 296.462 11.3523C296.462 10.4091 296.319 9.5767 296.035 8.85511C295.751 8.13352 295.331 7.56818 294.774 7.15909C294.217 6.75 293.53 6.54545 292.712 6.54545C291.859 6.54545 291.149 6.76136 290.581 7.19318C290.018 7.625 289.595 8.20455 289.311 8.93182C289.033 9.65909 288.893 10.4659 288.893 11.3523C288.893 12.2614 289.035 13.0653 289.319 13.7642C289.609 14.4574 290.035 15.0028 290.598 15.4006C291.166 15.7926 291.871 15.9886 292.712 15.9886ZM307.653 18.3068C306.823 18.3068 306.07 18.1506 305.394 17.8381C304.718 17.5199 304.181 17.0625 303.784 16.4659C303.386 15.8636 303.187 15.1364 303.187 14.2841C303.187 13.5341 303.335 12.9261 303.63 12.4602C303.926 11.9886 304.32 11.6193 304.815 11.3523C305.309 11.0852 305.855 10.8864 306.451 10.7557C307.053 10.6193 307.659 10.5114 308.267 10.4318C309.062 10.3295 309.707 10.2528 310.201 10.2017C310.701 10.1449 311.065 10.0511 311.292 9.92045C311.525 9.78977 311.642 9.5625 311.642 9.23864V9.17045C311.642 8.32955 311.411 7.67614 310.951 7.21023C310.497 6.74432 309.806 6.51136 308.88 6.51136C307.92 6.51136 307.167 6.72159 306.622 7.14205C306.076 7.5625 305.693 8.01136 305.471 8.48864L303.562 7.80682C303.903 7.01136 304.357 6.39205 304.926 5.94886C305.499 5.5 306.124 5.1875 306.801 5.01136C307.482 4.82955 308.153 4.73864 308.812 4.73864C309.232 4.73864 309.715 4.78977 310.261 4.89204C310.812 4.98864 311.343 5.19034 311.855 5.49716C312.372 5.80398 312.801 6.26705 313.142 6.88636C313.482 7.50568 313.653 8.33523 313.653 9.375V18H311.642V16.2273H311.539C311.403 16.5114 311.176 16.8153 310.857 17.1392C310.539 17.4631 310.116 17.7386 309.588 17.9659C309.059 18.1932 308.414 18.3068 307.653 18.3068ZM307.96 16.5C308.755 16.5 309.426 16.3438 309.971 16.0312C310.522 15.7188 310.937 15.3153 311.215 14.821C311.499 14.3267 311.642 13.8068 311.642 13.2614V11.4205C311.556 11.5227 311.369 11.6165 311.079 11.7017C310.795 11.7812 310.465 11.8523 310.09 11.9148C309.721 11.9716 309.36 12.0227 309.008 12.0682C308.661 12.108 308.38 12.142 308.164 12.1705C307.642 12.2386 307.153 12.3494 306.698 12.5028C306.249 12.6506 305.886 12.875 305.607 13.1761C305.335 13.4716 305.198 13.875 305.198 14.3864C305.198 15.0852 305.457 15.6136 305.974 15.9716C306.497 16.3239 307.159 16.5 307.96 16.5ZM319.004 18V4.90909H321.015V18H319.004ZM320.027 2.72727C319.635 2.72727 319.297 2.59375 319.013 2.3267C318.734 2.05966 318.595 1.73864 318.595 1.36364C318.595 0.988636 318.734 0.667614 319.013 0.400568C319.297 0.133523 319.635 0 320.027 0C320.419 0 320.754 0.133523 321.032 0.400568C321.317 0.667614 321.459 0.988636 321.459 1.36364C321.459 1.73864 321.317 2.05966 321.032 2.3267C320.754 2.59375 320.419 2.72727 320.027 2.72727ZM328.391 10.125V18H326.379V4.90909H328.323V6.95455H328.493C328.8 6.28977 329.266 5.75568 329.891 5.35227C330.516 4.94318 331.323 4.73864 332.311 4.73864C333.198 4.73864 333.973 4.92045 334.638 5.28409C335.303 5.64205 335.82 6.1875 336.189 6.92045C336.558 7.64773 336.743 8.56818 336.743 9.68182V18H334.732V9.81818C334.732 8.78977 334.465 7.98864 333.93 7.41477C333.396 6.83523 332.663 6.54545 331.732 6.54545C331.09 6.54545 330.516 6.68466 330.01 6.96307C329.51 7.24148 329.115 7.64773 328.825 8.18182C328.536 8.71591 328.391 9.36364 328.391 10.125Z" fill="white"/>
</g>
<defs>
<filter id="filter0_d_3_6" x="0.840912" y="0" width="358.902" height="47.1818" filterUnits="userSpaceOnUse" color-interpolation-filters="sRGB">
<feFlood flood-opacity="0" result="BackgroundImageFix"/>
<feColorMatrix in="SourceAlpha" type="matrix" values="0 0 0 0 0 0 0 0 0 0 0 0 0 0 0 0 0 0 127 0" result="hardAlpha"/>
<feOffset dx="20" dy="21"/>
<feGaussianBlur stdDeviation="1.5"/>
<feComposite in2="hardAlpha" operator="out"/>
<feColorMatrix type="matrix" values="0 0 0 0 1 0 0 0 0 1 0 0 0 0 1 0 0 0 0.18 0"/>
<feBlend mode="normal" in2="BackgroundImageFix" result="effect1_dropShadow_3_6"/>
<feBlend mode="normal" in="SourceGraphic" in2="effect1_dropShadow_3_6" result="shape"/>
</filter>
</defs>
</svg>
