<svg width="321" height="53" viewBox="0 0 321 53" fill="none" xmlns="http://www.w3.org/2000/svg">
<g filter="url(#filter0_d_3_6)">
<path d="M5.59216 18V4.90909H7.53534V6.95455H7.7058C7.97852 6.25568 8.41886 5.71307 9.02682 5.3267C9.63477 4.93466 10.3649 4.73864 11.2172 4.73864C12.0808 4.73864 12.7995 4.93466 13.3734 5.3267C13.953 5.71307 14.4047 6.25568 14.7285 6.95455H14.8649C15.2001 6.27841 15.703 5.74148 16.3734 5.34375C17.0439 4.94034 17.8478 4.73864 18.7853 4.73864C19.9558 4.73864 20.9132 5.10511 21.6575 5.83807C22.4018 6.56534 22.774 7.69886 22.774 9.23864V18H20.7626V9.23864C20.7626 8.27273 20.4984 7.58239 19.97 7.16761C19.4416 6.75284 18.8194 6.54545 18.1035 6.54545C17.1831 6.54545 16.47 6.82386 15.9643 7.38068C15.4586 7.93182 15.2058 8.63068 15.2058 9.47727V18H13.1603V9.03409C13.1603 8.28977 12.9189 7.69034 12.4359 7.2358C11.953 6.77557 11.3308 6.54545 10.5694 6.54545C10.0467 6.54545 9.55807 6.68466 9.10352 6.96307C8.65466 7.24148 8.29102 7.62784 8.01262 8.12216C7.73989 8.6108 7.60352 9.17614 7.60352 9.81818V18H5.59216ZM31.0238 18.3068C30.1943 18.3068 29.4414 18.1506 28.7653 17.8381C28.0892 17.5199 27.5522 17.0625 27.1545 16.4659C26.7568 15.8636 26.5579 15.1364 26.5579 14.2841C26.5579 13.5341 26.7056 12.9261 27.0011 12.4602C27.2965 11.9886 27.6914 11.6193 28.1857 11.3523C28.6801 11.0852 29.2255 10.8864 29.8221 10.7557C30.4244 10.6193 31.0295 10.5114 31.6374 10.4318C32.4329 10.3295 33.0778 10.2528 33.5721 10.2017C34.0721 10.1449 34.4357 10.0511 34.663 9.92045C34.896 9.78977 35.0124 9.5625 35.0124 9.23864V9.17045C35.0124 8.32955 34.7823 7.67614 34.3221 7.21023C33.8676 6.74432 33.1772 6.51136 32.2511 6.51136C31.2909 6.51136 30.538 6.72159 29.9926 7.14205C29.4471 7.5625 29.0636 8.01136 28.842 8.48864L26.9329 7.80682C27.2738 7.01136 27.7284 6.39205 28.2965 5.94886C28.8704 5.5 29.4954 5.1875 30.1715 5.01136C30.8534 4.82955 31.5238 4.73864 32.1829 4.73864C32.6034 4.73864 33.0863 4.78977 33.6318 4.89204C34.1829 4.98864 34.7142 5.19034 35.2255 5.49716C35.7426 5.80398 36.1715 6.26705 36.5124 6.88636C36.8534 7.50568 37.0238 8.33523 37.0238 9.375V18H35.0124V16.2273H34.9102C34.7738 16.5114 34.5465 16.8153 34.2284 17.1392C33.9102 17.4631 33.4869 17.7386 32.9585 17.9659C32.4301 18.1932 31.7852 18.3068 31.0238 18.3068ZM31.3306 16.5C32.1261 16.5 32.7965 16.3438 33.342 16.0312C33.8931 15.7188 34.3079 15.3153 34.5863 14.821C34.8704 14.3267 35.0124 13.8068 35.0124 13.2614V11.4205C34.9272 11.5227 34.7397 11.6165 34.4499 11.7017C34.1659 11.7812 33.8363 11.8523 33.4613 11.9148C33.092 11.9716 32.7312 12.0227 32.3789 12.0682C32.0323 12.108 31.7511 12.142 31.5352 12.1705C31.0124 12.2386 30.5238 12.3494 30.0693 12.5028C29.6204 12.6506 29.2568 12.875 28.9784 13.1761C28.7056 13.4716 28.5693 13.875 28.5693 14.3864C28.5693 15.0852 28.8278 15.6136 29.3448 15.9716C29.8676 16.3239 30.5295 16.5 31.3306 16.5ZM43.29 13.2273L43.2559 10.7386H43.665L49.3922 4.90909H51.8809L45.7786 11.0795H45.6082L43.29 13.2273ZM41.415 18V0.545454H43.4263V18H41.415ZM49.7332 18L44.6195 11.5227L46.0513 10.125L52.29 18H49.7332ZM60.1392 18.2727C58.8779 18.2727 57.7898 17.9943 56.875 17.4375C55.9659 16.875 55.2642 16.0909 54.7699 15.0852C54.2813 14.0739 54.037 12.8977 54.037 11.5568C54.037 10.2159 54.2813 9.03409 54.7699 8.01136C55.2642 6.98295 55.9517 6.18182 56.8324 5.60795C57.7188 5.02841 58.7529 4.73864 59.9347 4.73864C60.6165 4.73864 61.2898 4.85227 61.9546 5.07954C62.6194 5.30682 63.2245 5.67614 63.7699 6.1875C64.3154 6.69318 64.75 7.36364 65.0739 8.19886C65.3978 9.03409 65.5597 10.0625 65.5597 11.2841V12.1364H55.4688V10.3977H63.5142C63.5142 9.65909 63.3665 9 63.0711 8.42045C62.7813 7.84091 62.3665 7.38352 61.8267 7.0483C61.2926 6.71307 60.662 6.54545 59.9347 6.54545C59.1336 6.54545 58.4404 6.74432 57.8551 7.14205C57.2756 7.53409 56.8296 8.04545 56.5171 8.67614C56.2046 9.30682 56.0483 9.98295 56.0483 10.7045V11.8636C56.0483 12.8523 56.2188 13.6903 56.5597 14.3778C56.9063 15.0597 57.3864 15.5795 58 15.9375C58.6137 16.2898 59.3267 16.4659 60.1392 16.4659C60.6676 16.4659 61.1449 16.392 61.5711 16.2443C62.0029 16.0909 62.375 15.8636 62.6875 15.5625C63 15.2557 63.2415 14.875 63.412 14.4205L65.3551 14.9659C65.1506 15.625 64.8069 16.2045 64.3239 16.7045C63.8409 17.1989 63.2444 17.5852 62.5341 17.8636C61.8239 18.1364 61.0256 18.2727 60.1392 18.2727ZM82.298 18.2727C81.0366 18.2727 79.9486 17.9943 79.0338 17.4375C78.1247 16.875 77.423 16.0909 76.9287 15.0852C76.44 14.0739 76.1957 12.8977 76.1957 11.5568C76.1957 10.2159 76.44 9.03409 76.9287 8.01136C77.423 6.98295 78.1105 6.18182 78.9912 5.60795C79.8775 5.02841 80.9116 4.73864 82.0934 4.73864C82.7753 4.73864 83.4486 4.85227 84.1133 5.07954C84.7781 5.30682 85.3832 5.67614 85.9287 6.1875C86.4741 6.69318 86.9088 7.36364 87.2326 8.19886C87.5565 9.03409 87.7184 10.0625 87.7184 11.2841V12.1364H77.6275V10.3977H85.673C85.673 9.65909 85.5253 9 85.2298 8.42045C84.94 7.84091 84.5253 7.38352 83.9855 7.0483C83.4514 6.71307 82.8207 6.54545 82.0934 6.54545C81.2923 6.54545 80.5991 6.74432 80.0139 7.14205C79.4343 7.53409 78.9883 8.04545 78.6758 8.67614C78.3633 9.30682 78.2071 9.98295 78.2071 10.7045V11.8636C78.2071 12.8523 78.3775 13.6903 78.7184 14.3778C79.065 15.0597 79.5451 15.5795 80.1588 15.9375C80.7724 16.2898 81.4855 16.4659 82.298 16.4659C82.8264 16.4659 83.3037 16.392 83.7298 16.2443C84.1616 16.0909 84.5338 15.8636 84.8463 15.5625C85.1588 15.2557 85.4003 14.875 85.5707 14.4205L87.5139 14.9659C87.3093 15.625 86.9656 16.2045 86.4826 16.7045C85.9997 17.1989 85.4031 17.5852 84.6929 17.8636C83.9826 18.1364 83.1843 18.2727 82.298 18.2727ZM91.4981 18V4.90909H93.4413V6.95455H93.6117C93.8845 6.25568 94.3248 5.71307 94.9328 5.3267C95.5407 4.93466 96.2708 4.73864 97.1231 4.73864C97.9867 4.73864 98.7055 4.93466 99.2793 5.3267C99.8589 5.71307 100.311 6.25568 100.634 6.95455H100.771C101.106 6.27841 101.609 5.74148 102.279 5.34375C102.95 4.94034 103.754 4.73864 104.691 4.73864C105.862 4.73864 106.819 5.10511 107.563 5.83807C108.308 6.56534 108.68 7.69886 108.68 9.23864V18H106.669V9.23864C106.669 8.27273 106.404 7.58239 105.876 7.16761C105.348 6.75284 104.725 6.54545 104.009 6.54545C103.089 6.54545 102.376 6.82386 101.87 7.38068C101.365 7.93182 101.112 8.63068 101.112 9.47727V18H99.0663V9.03409C99.0663 8.28977 98.8248 7.69034 98.3418 7.2358C97.8589 6.77557 97.2367 6.54545 96.4754 6.54545C95.9526 6.54545 95.464 6.68466 95.0095 6.96307C94.5606 7.24148 94.197 7.62784 93.9186 8.12216C93.6458 8.6108 93.5095 9.17614 93.5095 9.81818V18H91.4981ZM113.077 22.9091V4.90909H115.021V6.98864H115.259C115.407 6.76136 115.612 6.47159 115.873 6.11932C116.14 5.76136 116.521 5.44318 117.015 5.16477C117.515 4.88068 118.191 4.73864 119.043 4.73864C120.146 4.73864 121.117 5.0142 121.958 5.56534C122.799 6.11648 123.455 6.89773 123.927 7.90909C124.399 8.92045 124.634 10.1136 124.634 11.4886C124.634 12.875 124.399 14.0767 123.927 15.0938C123.455 16.1051 122.802 16.8892 121.967 17.446C121.131 17.9972 120.168 18.2727 119.077 18.2727C118.237 18.2727 117.563 18.1335 117.058 17.8551C116.552 17.571 116.163 17.25 115.89 16.892C115.617 16.5284 115.407 16.2273 115.259 15.9886H115.089V22.9091H113.077ZM115.055 11.4545C115.055 12.4432 115.2 13.3153 115.489 14.071C115.779 14.821 116.202 15.4091 116.759 15.8352C117.316 16.2557 117.998 16.4659 118.805 16.4659C119.646 16.4659 120.347 16.2443 120.91 15.8011C121.478 15.3523 121.904 14.75 122.188 13.9943C122.478 13.233 122.623 12.3864 122.623 11.4545C122.623 10.5341 122.481 9.70455 122.197 8.96591C121.918 8.22159 121.495 7.63352 120.927 7.2017C120.364 6.7642 119.657 6.54545 118.805 6.54545C117.987 6.54545 117.299 6.75284 116.742 7.16761C116.185 7.5767 115.765 8.15057 115.481 8.8892C115.197 9.62216 115.055 10.4773 115.055 11.4545ZM132.275 18.3068C131.445 18.3068 130.692 18.1506 130.016 17.8381C129.34 17.5199 128.803 17.0625 128.405 16.4659C128.008 15.8636 127.809 15.1364 127.809 14.2841C127.809 13.5341 127.957 12.9261 128.252 12.4602C128.547 11.9886 128.942 11.6193 129.437 11.3523C129.931 11.0852 130.476 10.8864 131.073 10.7557C131.675 10.6193 132.28 10.5114 132.888 10.4318C133.684 10.3295 134.329 10.2528 134.823 10.2017C135.323 10.1449 135.687 10.0511 135.914 9.92045C136.147 9.78977 136.263 9.5625 136.263 9.23864V9.17045C136.263 8.32955 136.033 7.67614 135.573 7.21023C135.119 6.74432 134.428 6.51136 133.502 6.51136C132.542 6.51136 131.789 6.72159 131.244 7.14205C130.698 7.5625 130.315 8.01136 130.093 8.48864L128.184 7.80682C128.525 7.01136 128.979 6.39205 129.547 5.94886C130.121 5.5 130.746 5.1875 131.422 5.01136C132.104 4.82955 132.775 4.73864 133.434 4.73864C133.854 4.73864 134.337 4.78977 134.883 4.89204C135.434 4.98864 135.965 5.19034 136.476 5.49716C136.994 5.80398 137.422 6.26705 137.763 6.88636C138.104 7.50568 138.275 8.33523 138.275 9.375V18H136.263V16.2273H136.161C136.025 16.5114 135.797 16.8153 135.479 17.1392C135.161 17.4631 134.738 17.7386 134.209 17.9659C133.681 18.1932 133.036 18.3068 132.275 18.3068ZM132.582 16.5C133.377 16.5 134.047 16.3438 134.593 16.0312C135.144 15.7188 135.559 15.3153 135.837 14.821C136.121 14.3267 136.263 13.8068 136.263 13.2614V11.4205C136.178 11.5227 135.991 11.6165 135.701 11.7017C135.417 11.7812 135.087 11.8523 134.712 11.9148C134.343 11.9716 133.982 12.0227 133.63 12.0682C133.283 12.108 133.002 12.142 132.786 12.1705C132.263 12.2386 131.775 12.3494 131.32 12.5028C130.871 12.6506 130.508 12.875 130.229 13.1761C129.957 13.4716 129.82 13.875 129.82 14.3864C129.82 15.0852 130.079 15.6136 130.596 15.9716C131.119 16.3239 131.78 16.5 132.582 16.5ZM148.359 4.90909V6.61364H141.575V4.90909H148.359ZM143.552 1.77273H145.564V14.25C145.564 14.8182 145.646 15.2443 145.811 15.5284C145.981 15.8068 146.197 15.9943 146.459 16.0909C146.726 16.1818 147.007 16.2273 147.302 16.2273C147.524 16.2273 147.706 16.2159 147.848 16.1932C147.99 16.1648 148.103 16.142 148.189 16.125L148.598 17.9318C148.461 17.983 148.271 18.0341 148.027 18.0852C147.782 18.142 147.473 18.1705 147.098 18.1705C146.53 18.1705 145.973 18.0483 145.427 17.804C144.887 17.5597 144.439 17.1875 144.081 16.6875C143.728 16.1875 143.552 15.5568 143.552 14.7955V1.77273ZM154.397 10.125V18H152.386V0.545454H154.397V6.95455H154.568C154.875 6.27841 155.335 5.74148 155.948 5.34375C156.568 4.94034 157.392 4.73864 158.42 4.73864C159.312 4.73864 160.093 4.91761 160.764 5.27557C161.434 5.62784 161.954 6.17045 162.323 6.90341C162.698 7.63068 162.886 8.55682 162.886 9.68182V18H160.875V9.81818C160.875 8.77841 160.605 7.97443 160.065 7.40625C159.531 6.83239 158.789 6.54545 157.84 6.54545C157.181 6.54545 156.59 6.68466 156.068 6.96307C155.551 7.24148 155.142 7.64773 154.84 8.18182C154.545 8.71591 154.397 9.36364 154.397 10.125ZM168.112 22.9091C167.771 22.9091 167.467 22.8807 167.2 22.8239C166.933 22.7727 166.749 22.7216 166.646 22.6705L167.158 20.8977C167.646 21.0227 168.078 21.0682 168.453 21.0341C168.828 21 169.161 20.8324 169.45 20.5312C169.746 20.2358 170.016 19.7557 170.26 19.0909L170.635 18.0682L165.794 4.90909H167.976L171.59 15.3409H171.726L175.34 4.90909H177.521L171.965 19.9091C171.715 20.5852 171.405 21.1449 171.036 21.5881C170.666 22.0369 170.237 22.3693 169.749 22.5852C169.266 22.8011 168.72 22.9091 168.112 22.9091ZM193.65 23.1818C192.679 23.1818 191.843 23.0568 191.145 22.8068C190.446 22.5625 189.863 22.2386 189.397 21.8352C188.937 21.4375 188.571 21.0114 188.298 20.5568L189.9 19.4318C190.082 19.6705 190.312 19.9432 190.591 20.25C190.869 20.5625 191.25 20.8324 191.733 21.0597C192.221 21.2926 192.861 21.4091 193.65 21.4091C194.707 21.4091 195.579 21.1534 196.267 20.642C196.954 20.1307 197.298 19.3295 197.298 18.2386V15.5795H197.128C196.98 15.8182 196.77 16.1136 196.497 16.4659C196.23 16.8125 195.843 17.1222 195.338 17.3949C194.838 17.6619 194.162 17.7955 193.309 17.7955C192.253 17.7955 191.304 17.5455 190.463 17.0455C189.628 16.5455 188.966 15.8182 188.477 14.8636C187.994 13.9091 187.753 12.75 187.753 11.3864C187.753 10.0455 187.988 8.87784 188.46 7.88352C188.932 6.88352 189.588 6.1108 190.429 5.56534C191.27 5.0142 192.241 4.73864 193.343 4.73864C194.196 4.73864 194.872 4.88068 195.372 5.16477C195.878 5.44318 196.264 5.76136 196.531 6.11932C196.804 6.47159 197.014 6.76136 197.162 6.98864H197.366V4.90909H199.309V18.375C199.309 19.5 199.054 20.4148 198.542 21.1193C198.037 21.8295 197.355 22.3494 196.497 22.679C195.645 23.0142 194.696 23.1818 193.65 23.1818ZM193.582 15.9886C194.389 15.9886 195.071 15.804 195.628 15.4347C196.184 15.0653 196.608 14.5341 196.897 13.8409C197.187 13.1477 197.332 12.3182 197.332 11.3523C197.332 10.4091 197.19 9.5767 196.906 8.85511C196.622 8.13352 196.201 7.56818 195.645 7.15909C195.088 6.75 194.4 6.54545 193.582 6.54545C192.73 6.54545 192.02 6.76136 191.451 7.19318C190.889 7.625 190.466 8.20455 190.182 8.93182C189.903 9.65909 189.764 10.4659 189.764 11.3523C189.764 12.2614 189.906 13.0653 190.19 13.7642C190.48 14.4574 190.906 15.0028 191.468 15.4006C192.037 15.7926 192.741 15.9886 193.582 15.9886ZM203.711 18V4.90909H205.654V6.88636H205.791C206.029 6.23864 206.461 5.71307 207.086 5.30966C207.711 4.90625 208.416 4.70454 209.2 4.70454C209.348 4.70454 209.532 4.70739 209.754 4.71307C209.975 4.71875 210.143 4.72727 210.257 4.73864V6.78409C210.188 6.76705 210.032 6.74148 209.788 6.70739C209.549 6.66761 209.296 6.64773 209.029 6.64773C208.393 6.64773 207.825 6.78125 207.325 7.0483C206.831 7.30966 206.438 7.6733 206.149 8.1392C205.865 8.59943 205.723 9.125 205.723 9.71591V18H203.711ZM218.451 18.2727C217.19 18.2727 216.102 17.9943 215.187 17.4375C214.278 16.875 213.576 16.0909 213.082 15.0852C212.593 14.0739 212.349 12.8977 212.349 11.5568C212.349 10.2159 212.593 9.03409 213.082 8.01136C213.576 6.98295 214.264 6.18182 215.144 5.60795C216.031 5.02841 217.065 4.73864 218.247 4.73864C218.928 4.73864 219.602 4.85227 220.266 5.07954C220.931 5.30682 221.536 5.67614 222.082 6.1875C222.627 6.69318 223.062 7.36364 223.386 8.19886C223.71 9.03409 223.872 10.0625 223.872 11.2841V12.1364H213.781V10.3977H221.826C221.826 9.65909 221.678 9 221.383 8.42045C221.093 7.84091 220.678 7.38352 220.139 7.0483C219.605 6.71307 218.974 6.54545 218.247 6.54545C217.445 6.54545 216.752 6.74432 216.167 7.14205C215.587 7.53409 215.141 8.04545 214.829 8.67614C214.516 9.30682 214.36 9.98295 214.36 10.7045V11.8636C214.36 12.8523 214.531 13.6903 214.872 14.3778C215.218 15.0597 215.698 15.5795 216.312 15.9375C216.926 16.2898 217.639 16.4659 218.451 16.4659C218.98 16.4659 219.457 16.392 219.883 16.2443C220.315 16.0909 220.687 15.8636 220.999 15.5625C221.312 15.2557 221.553 14.875 221.724 14.4205L223.667 14.9659C223.462 15.625 223.119 16.2045 222.636 16.7045C222.153 17.1989 221.556 17.5852 220.846 17.8636C220.136 18.1364 219.337 18.2727 218.451 18.2727ZM231.503 18.3068C230.674 18.3068 229.921 18.1506 229.245 17.8381C228.569 17.5199 228.032 17.0625 227.634 16.4659C227.236 15.8636 227.038 15.1364 227.038 14.2841C227.038 13.5341 227.185 12.9261 227.481 12.4602C227.776 11.9886 228.171 11.6193 228.665 11.3523C229.16 11.0852 229.705 10.8864 230.302 10.7557C230.904 10.6193 231.509 10.5114 232.117 10.4318C232.913 10.3295 233.557 10.2528 234.052 10.2017C234.552 10.1449 234.915 10.0511 235.143 9.92045C235.376 9.78977 235.492 9.5625 235.492 9.23864V9.17045C235.492 8.32955 235.262 7.67614 234.802 7.21023C234.347 6.74432 233.657 6.51136 232.731 6.51136C231.771 6.51136 231.018 6.72159 230.472 7.14205C229.927 7.5625 229.543 8.01136 229.322 8.48864L227.413 7.80682C227.753 7.01136 228.208 6.39205 228.776 5.94886C229.35 5.5 229.975 5.1875 230.651 5.01136C231.333 4.82955 232.003 4.73864 232.663 4.73864C233.083 4.73864 233.566 4.78977 234.111 4.89204C234.663 4.98864 235.194 5.19034 235.705 5.49716C236.222 5.80398 236.651 6.26705 236.992 6.88636C237.333 7.50568 237.503 8.33523 237.503 9.375V18H235.492V16.2273H235.39C235.253 16.5114 235.026 16.8153 234.708 17.1392C234.39 17.4631 233.967 17.7386 233.438 17.9659C232.91 18.1932 232.265 18.3068 231.503 18.3068ZM231.81 16.5C232.606 16.5 233.276 16.3438 233.822 16.0312C234.373 15.7188 234.788 15.3153 235.066 14.821C235.35 14.3267 235.492 13.8068 235.492 13.2614V11.4205C235.407 11.5227 235.219 11.6165 234.93 11.7017C234.646 11.7812 234.316 11.8523 233.941 11.9148C233.572 11.9716 233.211 12.0227 232.859 12.0682C232.512 12.108 232.231 12.142 232.015 12.1705C231.492 12.2386 231.003 12.3494 230.549 12.5028C230.1 12.6506 229.736 12.875 229.458 13.1761C229.185 13.4716 229.049 13.875 229.049 14.3864C229.049 15.0852 229.307 15.6136 229.825 15.9716C230.347 16.3239 231.009 16.5 231.81 16.5ZM247.588 4.90909V6.61364H240.804V4.90909H247.588ZM242.781 1.77273H244.792V14.25C244.792 14.8182 244.875 15.2443 245.04 15.5284C245.21 15.8068 245.426 15.9943 245.687 16.0909C245.954 16.1818 246.236 16.2273 246.531 16.2273C246.753 16.2273 246.934 16.2159 247.076 16.1932C247.219 16.1648 247.332 16.142 247.417 16.125L247.826 17.9318C247.69 17.983 247.5 18.0341 247.255 18.0852C247.011 18.142 246.701 18.1705 246.326 18.1705C245.758 18.1705 245.201 18.0483 244.656 17.804C244.116 17.5597 243.667 17.1875 243.309 16.6875C242.957 16.1875 242.781 15.5568 242.781 14.7955V1.77273ZM262.656 18.3068C261.826 18.3068 261.073 18.1506 260.397 17.8381C259.721 17.5199 259.184 17.0625 258.786 16.4659C258.389 15.8636 258.19 15.1364 258.19 14.2841C258.19 13.5341 258.338 12.9261 258.633 12.4602C258.928 11.9886 259.323 11.6193 259.818 11.3523C260.312 11.0852 260.857 10.8864 261.454 10.7557C262.056 10.6193 262.661 10.5114 263.269 10.4318C264.065 10.3295 264.71 10.2528 265.204 10.2017C265.704 10.1449 266.068 10.0511 266.295 9.92045C266.528 9.78977 266.644 9.5625 266.644 9.23864V9.17045C266.644 8.32955 266.414 7.67614 265.954 7.21023C265.499 6.74432 264.809 6.51136 263.883 6.51136C262.923 6.51136 262.17 6.72159 261.624 7.14205C261.079 7.5625 260.695 8.01136 260.474 8.48864L258.565 7.80682C258.906 7.01136 259.36 6.39205 259.928 5.94886C260.502 5.5 261.127 5.1875 261.803 5.01136C262.485 4.82955 263.156 4.73864 263.815 4.73864C264.235 4.73864 264.718 4.78977 265.264 4.89204C265.815 4.98864 266.346 5.19034 266.857 5.49716C267.374 5.80398 267.803 6.26705 268.144 6.88636C268.485 7.50568 268.656 8.33523 268.656 9.375V18H266.644V16.2273H266.542C266.406 16.5114 266.178 16.8153 265.86 17.1392C265.542 17.4631 265.119 17.7386 264.59 17.9659C264.062 18.1932 263.417 18.3068 262.656 18.3068ZM262.963 16.5C263.758 16.5 264.428 16.3438 264.974 16.0312C265.525 15.7188 265.94 15.3153 266.218 14.821C266.502 14.3267 266.644 13.8068 266.644 13.2614V11.4205C266.559 11.5227 266.372 11.6165 266.082 11.7017C265.798 11.7812 265.468 11.8523 265.093 11.9148C264.724 11.9716 264.363 12.0227 264.011 12.0682C263.664 12.108 263.383 12.142 263.167 12.1705C262.644 12.2386 262.156 12.3494 261.701 12.5028C261.252 12.6506 260.889 12.875 260.61 13.1761C260.338 13.4716 260.201 13.875 260.201 14.3864C260.201 15.0852 260.46 15.6136 260.977 15.9716C261.499 16.3239 262.161 16.5 262.963 16.5ZM278.331 23.1818C277.359 23.1818 276.524 23.0568 275.825 22.8068C275.126 22.5625 274.544 22.2386 274.078 21.8352C273.618 21.4375 273.251 21.0114 272.979 20.5568L274.581 19.4318C274.763 19.6705 274.993 19.9432 275.271 20.25C275.55 20.5625 275.93 20.8324 276.413 21.0597C276.902 21.2926 277.541 21.4091 278.331 21.4091C279.388 21.4091 280.26 21.1534 280.947 20.642C281.635 20.1307 281.979 19.3295 281.979 18.2386V15.5795H281.808C281.66 15.8182 281.45 16.1136 281.178 16.4659C280.91 16.8125 280.524 17.1222 280.018 17.3949C279.518 17.6619 278.842 17.7955 277.99 17.7955C276.933 17.7955 275.984 17.5455 275.143 17.0455C274.308 16.5455 273.646 15.8182 273.158 14.8636C272.675 13.9091 272.433 12.75 272.433 11.3864C272.433 10.0455 272.669 8.87784 273.141 7.88352C273.612 6.88352 274.268 6.1108 275.109 5.56534C275.95 5.0142 276.922 4.73864 278.024 4.73864C278.876 4.73864 279.553 4.88068 280.053 5.16477C280.558 5.44318 280.945 5.76136 281.212 6.11932C281.484 6.47159 281.695 6.76136 281.842 6.98864H282.047V4.90909H283.99V18.375C283.99 19.5 283.734 20.4148 283.223 21.1193C282.717 21.8295 282.035 22.3494 281.178 22.679C280.325 23.0142 279.376 23.1818 278.331 23.1818ZM278.263 15.9886C279.07 15.9886 279.751 15.804 280.308 15.4347C280.865 15.0653 281.288 14.5341 281.578 13.8409C281.868 13.1477 282.013 12.3182 282.013 11.3523C282.013 10.4091 281.871 9.5767 281.587 8.85511C281.303 8.13352 280.882 7.56818 280.325 7.15909C279.768 6.75 279.081 6.54545 278.263 6.54545C277.41 6.54545 276.7 6.76136 276.132 7.19318C275.57 7.625 275.146 8.20455 274.862 8.93182C274.584 9.65909 274.445 10.4659 274.445 11.3523C274.445 12.2614 274.587 13.0653 274.871 13.7642C275.16 14.4574 275.587 15.0028 276.149 15.4006C276.717 15.7926 277.422 15.9886 278.263 15.9886ZM292.244 18.3068C291.415 18.3068 290.662 18.1506 289.986 17.8381C289.309 17.5199 288.773 17.0625 288.375 16.4659C287.977 15.8636 287.778 15.1364 287.778 14.2841C287.778 13.5341 287.926 12.9261 288.221 12.4602C288.517 11.9886 288.912 11.6193 289.406 11.3523C289.9 11.0852 290.446 10.8864 291.042 10.7557C291.645 10.6193 292.25 10.5114 292.858 10.4318C293.653 10.3295 294.298 10.2528 294.792 10.2017C295.292 10.1449 295.656 10.0511 295.883 9.92045C296.116 9.78977 296.233 9.5625 296.233 9.23864V9.17045C296.233 8.32955 296.003 7.67614 295.542 7.21023C295.088 6.74432 294.398 6.51136 293.471 6.51136C292.511 6.51136 291.758 6.72159 291.213 7.14205C290.667 7.5625 290.284 8.01136 290.062 8.48864L288.153 7.80682C288.494 7.01136 288.949 6.39205 289.517 5.94886C290.091 5.5 290.716 5.1875 291.392 5.01136C292.074 4.82955 292.744 4.73864 293.403 4.73864C293.824 4.73864 294.307 4.78977 294.852 4.89204C295.403 4.98864 295.934 5.19034 296.446 5.49716C296.963 5.80398 297.392 6.26705 297.733 6.88636C298.074 7.50568 298.244 8.33523 298.244 9.375V18H296.233V16.2273H296.13C295.994 16.5114 295.767 16.8153 295.449 17.1392C295.13 17.4631 294.707 17.7386 294.179 17.9659C293.65 18.1932 293.005 18.3068 292.244 18.3068ZM292.551 16.5C293.346 16.5 294.017 16.3438 294.562 16.0312C295.113 15.7188 295.528 15.3153 295.807 14.821C296.091 14.3267 296.233 13.8068 296.233 13.2614V11.4205C296.148 11.5227 295.96 11.6165 295.67 11.7017C295.386 11.7812 295.057 11.8523 294.682 11.9148C294.312 11.9716 293.952 12.0227 293.599 12.0682C293.253 12.108 292.971 12.142 292.755 12.1705C292.233 12.2386 291.744 12.3494 291.29 12.5028C290.841 12.6506 290.477 12.875 290.199 13.1761C289.926 13.4716 289.79 13.875 289.79 14.3864C289.79 15.0852 290.048 15.6136 290.565 15.9716C291.088 16.3239 291.75 16.5 292.551 16.5ZM302.635 18V4.90909H304.647V18H302.635ZM303.658 2.72727C303.266 2.72727 302.928 2.59375 302.644 2.3267C302.365 2.05966 302.226 1.73864 302.226 1.36364C302.226 0.988636 302.365 0.667614 302.644 0.400568C302.928 0.133523 303.266 0 303.658 0C304.05 0 304.385 0.133523 304.664 0.400568C304.948 0.667614 305.09 0.988636 305.09 1.36364C305.09 1.73864 304.948 2.05966 304.664 2.3267C304.385 2.59375 304.05 2.72727 303.658 2.72727ZM311.062 10.125V18H309.051V4.90909H310.994V6.95455H311.164C311.471 6.28977 311.937 5.75568 312.562 5.35227C313.187 4.94318 313.994 4.73864 314.982 4.73864C315.869 4.73864 316.644 4.92045 317.309 5.28409C317.974 5.64205 318.491 6.1875 318.86 6.92045C319.23 7.64773 319.414 8.56818 319.414 9.68182V18H317.403V9.81818C317.403 8.78977 317.136 7.98864 316.602 7.41477C316.068 6.83523 315.335 6.54545 314.403 6.54545C313.761 6.54545 313.187 6.68466 312.681 6.96307C312.181 7.24148 311.786 7.64773 311.497 8.18182C311.207 8.71591 311.062 9.36364 311.062 10.125Z" fill="white"/>
</g>
<defs>
<filter id="filter0_d_3_6" x="0.592163" y="0" width="319.822" height="52.1818" filterUnits="userSpaceOnUse" color-interpolation-filters="sRGB">
<feFlood flood-opacity="0" result="BackgroundImageFix"/>
<feColorMatrix in="SourceAlpha" type="matrix" values="0 0 0 0 0 0 0 0 0 0 0 0 0 0 0 0 0 0 127 0" result="hardAlpha"/>
<feOffset dx="-2" dy="26"/>
<feGaussianBlur stdDeviation="1.5"/>
<feComposite in2="hardAlpha" operator="out"/>
<feColorMatrix type="matrix" values="0 0 0 0 1 0 0 0 0 1 0 0 0 0 1 0 0 0 0.18 0"/>
<feBlend mode="normal" in2="BackgroundImageFix" result="effect1_dropShadow_3_6"/>
<feBlend mode="normal" in="SourceGraphic" in2="effect1_dropShadow_3_6" result="shape"/>
</filter>
</defs>
</svg>
